# xmcd
#
# Track frame offsets: 
#        150
#        3114
#        29449
#        53204
#        91210
#        124736
#        127968
#        164952
#        187466
#        215358
#
# Disc length: 3342 seconds
#
# Revision: 0
# Processed by: cddbd v1.5.2PL0 Copyright (c) Steve Scherf et al.
# Submitted via: ExactAudioCopy v0.99pb3
#
DISCID=8c0d0c0a
DTITLE=John Mooney - Jazzfest Live 2006
DYEAR=2006
DGENRE=Blues
TTITLE0=Introduction
TTITLE1=Country Boy
TTITLE2=How Long, How Long Blues
TTITLE3=Hey Lil' Girl
TTITLE4=Do You Love Me
TTITLE5=Stage Banter
TTITLE6=Sacred Ground
TTITLE7=Doggon Thing
TTITLE8=Drink A Little Poison (4 U Die)
TTITLE9=Shortenin' Bread
EXTD=
EXTT0=
EXTT1=
EXTT2=
EXTT3=
EXTT4=
EXTT5=
EXTT6=
EXTT7=
EXTT8=
EXTT9=
PLAYORDER=
